<?xml version="1.0" encoding="UTF-8" standalone="no"?>
<svg width="78px" height="25px" viewBox="0 0 78 25" version="1.1" xmlns="http://www.w3.org/2000/svg" xmlns:xlink="http://www.w3.org/1999/xlink">
    <!-- Generator: Sketch 47.1 (45422) - http://www.bohemiancoding.com/sketch -->
    <title>TallyLabTitle</title>
    <desc>Created with Sketch.</desc>
    <defs></defs>
    <g id="Logo" stroke="none" stroke-width="1" fill="none" fill-rule="evenodd">
        <g id="TallyLabTitle">
            <path d="M0.166015625,6.34375 L1.99414062,6.34375 L1.99414062,3.14453125 L3.84570313,3.14453125 L3.84570313,6.34375 L6.92773438,6.34375 L6.72851562,7.94921875 L3.84570313,7.94921875 L3.84570313,15.2617188 C3.84570313,15.9882849 3.96484256,16.5703103 4.203125,17.0078125 C4.44140744,17.4453147 4.81445059,17.6640625 5.32226562,17.6640625 C5.59570449,17.6640625 5.93945105,17.6230473 6.35351562,17.5410156 C6.7675802,17.458984 7.04101496,17.3984377 7.17382812,17.359375 L7.31445312,18.9648438 C7.15820234,18.9960939 6.82812752,19.0449215 6.32421875,19.1113281 C5.82030998,19.1777347 5.42382957,19.2109375 5.13476562,19.2109375 C4.14257316,19.2109375 3.3710965,18.9648462 2.8203125,18.4726562 C2.2695285,17.9804663 1.99414062,17.0703191 1.99414062,15.7421875 L1.99414062,7.94921875 L0.166015625,7.94921875 L0.166015625,6.34375 Z" id="Path" fill="#444444"></path>
            <path d="M9.82226562,7.9140625 C10.1113296,7.64843617 10.4492168,7.40625109 10.8359375,7.1875 C11.2226582,6.96874891 11.6328103,6.78125078 12.0664062,6.625 C12.5000022,6.46874922 12.9492164,6.34960979 13.4140625,6.26757812 C13.8789086,6.18554646 14.3417946,6.14453125 14.8027344,6.14453125 C16.0996159,6.14453125 17.1308555,6.46874676 17.8964844,7.1171875 C18.6621132,7.76562824 19.0449219,8.66796297 19.0449219,9.82421875 L19.0449219,15.4609375 C19.0449219,15.9218773 19.0605467,16.3007798 19.0917969,16.5976562 C19.123047,16.8945327 19.1796871,17.1289054 19.2617188,17.3007812 C19.3437504,17.4726571 19.4531243,17.5917965 19.5898438,17.6582031 C19.7265632,17.7246097 19.9003896,17.7578125 20.1113281,17.7578125 C20.3769545,17.7578125 20.646483,17.730469 20.9199219,17.6757812 L21.2128906,18.53125 C21.0019521,18.734376 20.7031269,18.8984369 20.3164062,19.0234375 C19.9296856,19.1484381 19.5136741,19.2109375 19.0683594,19.2109375 C18.5761694,19.2109375 18.179689,19.0371111 17.8789062,18.6894531 C17.5781235,18.3417951 17.3847661,17.8437532 17.2988281,17.1953125 C16.6347623,17.8125031 15.9101602,18.3027326 15.125,18.6660156 C14.3398398,19.0292987 13.4980514,19.2109375 12.5996094,19.2109375 C12.1074194,19.2109375 11.6484396,19.1386726 11.2226562,18.9941406 C10.7968729,18.8496087 10.4277359,18.6406264 10.1152344,18.3671875 C9.80273281,18.0937486 9.55859463,17.7578145 9.3828125,17.359375 C9.20703037,16.9609355 9.11914062,16.507815 9.11914062,16 C9.11914062,15.3203091 9.24999869,14.7304712 9.51171875,14.2304688 C9.77343881,13.7304663 10.1191385,13.3046893 10.5488281,12.953125 C10.9785178,12.6015607 11.4726535,12.3164073 12.03125,12.0976562 C12.5898465,11.8789052 13.1679658,11.7070319 13.765625,11.5820312 C14.3632842,11.4570306 14.9589814,11.3730471 15.5527344,11.3300781 C16.1464873,11.2871092 16.6933569,11.265625 17.1933594,11.265625 L17.1933594,9.96484375 C17.1933594,9.13671461 16.9785178,8.53515812 16.5488281,8.16015625 C16.1191385,7.78515438 15.517582,7.59765625 14.7441406,7.59765625 C14.3066384,7.59765625 13.8984394,7.64843699 13.5195312,7.75 C13.1406231,7.85156301 12.787111,7.98046797 12.4589844,8.13671875 C12.1308577,8.29296953 11.8300795,8.46484281 11.5566406,8.65234375 C11.2832018,8.83984469 11.0371105,9.01953039 10.8183594,9.19140625 L9.82226562,7.9140625 Z" id="Path" fill="#444444"></path>
            <path d="M17.1933594,12.3671875 C16.1308541,12.3906251 15.2168007,12.4863273 14.4511719,12.6542969 C13.685543,12.8222665 13.0566431,13.0507798 12.5644531,13.3398438 C12.0722632,13.6289077 11.7089855,13.968748 11.4746094,14.359375 C11.2402332,14.750002 11.1230469,15.1796852 11.1230469,15.6484375 C11.1230469,16.3125033 11.310545,16.8007797 11.6855469,17.1132812 C12.0605488,17.4257828 12.5800748,17.5820312 13.2441406,17.5820312 C13.6035174,17.5820312 13.9609357,17.5429691 14.3164062,17.4648438 C14.6718768,17.3867184 15.0175764,17.2812507 15.3535156,17.1484375 C15.6894548,17.0156243 16.0117172,16.8574228 16.3203125,16.6738281 C16.6289078,16.4902335 16.9199205,16.2929698 17.1933594,16.0820312 L17.1933594,12.3671875 Z" id="Path" fill="#FFFFFF"></path>
            <path d="M23.4980469,0.63671875 L25.3496094,0.63671875 L25.3496094,16.4101562 C25.3496094,16.8867211 25.4433584,17.2109366 25.6308594,17.3828125 C25.8183603,17.5546884 26.146482,17.640625 26.6152344,17.640625 C26.6777347,17.640625 26.7695306,17.6367188 26.890625,17.6289062 C27.0117194,17.6210937 27.134765,17.6093751 27.2597656,17.59375 L27.5292969,18.671875 C27.3886712,18.7343753 27.2324227,18.7968747 27.0605469,18.859375 C26.888671,18.9218753 26.7089853,18.9785154 26.5214844,19.0292969 C26.3339834,19.0800784 26.1464853,19.1191405 25.9589844,19.1464844 C25.7714834,19.1738283 25.5957039,19.1875 25.4316406,19.1875 C24.8222626,19.1875 24.3476579,18.9921895 24.0078125,18.6015625 C23.6679671,18.2109355 23.4980469,17.6289101 23.4980469,16.8554688 L23.4980469,0.63671875 Z" id="Path" fill="#444444"></path>
            <path d="M29.4394531,0.63671875 L31.2910156,0.63671875 L31.2910156,16.4101562 C31.2910156,16.8867211 31.3847647,17.2109366 31.5722656,17.3828125 C31.7597666,17.5546884 32.0878883,17.640625 32.5566406,17.640625 C32.6191409,17.640625 32.7109369,17.6367188 32.8320312,17.6289062 C32.9531256,17.6210937 33.0761713,17.6093751 33.2011719,17.59375 L33.4707031,18.671875 C33.3300774,18.7343753 33.173829,18.7968747 33.0019531,18.859375 C32.8300773,18.9218753 32.6503916,18.9785154 32.4628906,19.0292969 C32.2753897,19.0800784 32.0878916,19.1191405 31.9003906,19.1464844 C31.7128897,19.1738283 31.5371102,19.1875 31.3730469,19.1875 C30.7636688,19.1875 30.2890642,18.9921895 29.9492188,18.6015625 C29.6093733,18.2109355 29.4394531,17.6289101 29.4394531,16.8554688 L29.4394531,0.63671875 Z" id="Path" fill="#444444"></path>
            <path d="M39.8808594,16.46875 L43.2089844,6.34375 L45.2128906,6.34375 L40.1621094,19.9609375 C39.880858,20.6875036 39.5917984,21.324216 39.2949219,21.8710938 C38.9980454,22.4179715 38.6679706,22.8808575 38.3046875,23.2597656 C37.9414044,23.6386738 37.5117212,23.9277334 37.015625,24.1269531 C36.5195288,24.3261729 35.9082068,24.4257812 35.1816406,24.4257812 C34.6113253,24.4257812 33.9785191,24.3515632 33.2832031,24.203125 L33.6230469,22.4335938 C34.0996118,22.6289072 34.5996068,22.7265625 35.1230469,22.7265625 C35.6152368,22.7265625 36.0292952,22.6503914 36.3652344,22.4980469 C36.7011736,22.3457024 36.9941394,22.1250014 37.2441406,21.8359375 C37.4941419,21.5468736 37.7148428,21.1914084 37.90625,20.7695312 C38.0976572,20.3476541 38.2949209,19.8671902 38.4980469,19.328125 C38.615235,19.0546861 38.7207027,18.6679712 38.8144531,18.1679688 L34.0566406,6.34375 L36.0488281,6.34375 L39.8808594,16.46875 Z" id="Path" fill="#444444"></path>
            <path d="M47.5566406,0.63671875 L49.4082031,0.63671875 L49.4082031,16.4101562 C49.4082031,16.8867211 49.5019522,17.2109366 49.6894531,17.3828125 C49.8769541,17.5546884 50.2050758,17.640625 50.6738281,17.640625 C50.7363284,17.640625 50.8281244,17.6367188 50.9492188,17.6289062 C51.0703131,17.6210937 51.1933588,17.6093751 51.3183594,17.59375 L51.5878906,18.671875 C51.4472649,18.7343753 51.2910165,18.7968747 51.1191406,18.859375 C50.9472648,18.9218753 50.7675791,18.9785154 50.5800781,19.0292969 C50.3925772,19.0800784 50.2050791,19.1191405 50.0175781,19.1464844 C49.8300772,19.1738283 49.6542977,19.1875 49.4902344,19.1875 C48.8808563,19.1875 48.4062517,18.9921895 48.0664062,18.6015625 C47.7265608,18.2109355 47.5566406,17.6289101 47.5566406,16.8554688 L47.5566406,0.63671875 Z" id="Path" fill="#37719E"></path>
            <path d="M53.5449219,7.9140625 C53.8339858,7.64843617 54.1718731,7.40625109 54.5585938,7.1875 C54.9453144,6.96874891 55.3554666,6.78125078 55.7890625,6.625 C56.2226584,6.46874922 56.6718727,6.34960979 57.1367188,6.26757812 C57.6015648,6.18554646 58.0644508,6.14453125 58.5253906,6.14453125 C59.8222721,6.14453125 60.8535118,6.46874676 61.6191406,7.1171875 C62.3847695,7.76562824 62.7675781,8.66796297 62.7675781,9.82421875 L62.7675781,15.4609375 C62.7675781,15.9218773 62.783203,16.3007798 62.8144531,16.5976562 C62.8457033,16.8945327 62.9023433,17.1289054 62.984375,17.3007812 C63.0664067,17.4726571 63.1757806,17.5917965 63.3125,17.6582031 C63.4492194,17.7246097 63.6230458,17.7578125 63.8339844,17.7578125 C64.0996107,17.7578125 64.3691393,17.730469 64.6425781,17.6757812 L64.9355469,18.53125 C64.7246083,18.734376 64.4257832,18.8984369 64.0390625,19.0234375 C63.6523418,19.1484381 63.2363304,19.2109375 62.7910156,19.2109375 C62.2988257,19.2109375 61.9023453,19.0371111 61.6015625,18.6894531 C61.3007797,18.3417951 61.1074223,17.8437532 61.0214844,17.1953125 C60.3574186,17.8125031 59.6328164,18.3027326 58.8476562,18.6660156 C58.0624961,19.0292987 57.2207076,19.2109375 56.3222656,19.2109375 C55.8300757,19.2109375 55.3710959,19.1386726 54.9453125,18.9941406 C54.5195291,18.8496087 54.1503922,18.6406264 53.8378906,18.3671875 C53.5253891,18.0937486 53.2812509,17.7578145 53.1054688,17.359375 C52.9296866,16.9609355 52.8417969,16.507815 52.8417969,16 C52.8417969,15.3203091 52.9726549,14.7304712 53.234375,14.2304688 C53.4960951,13.7304663 53.8417947,13.3046893 54.2714844,12.953125 C54.701174,12.6015607 55.1953097,12.3164073 55.7539062,12.0976562 C56.3125028,11.8789052 56.890622,11.7070319 57.4882812,11.5820312 C58.0859405,11.4570306 58.6816377,11.3730471 59.2753906,11.3300781 C59.8691436,11.2871092 60.4160131,11.265625 60.9160156,11.265625 L60.9160156,9.96484375 C60.9160156,9.13671461 60.701174,8.53515812 60.2714844,8.16015625 C59.8417947,7.78515438 59.2402382,7.59765625 58.4667969,7.59765625 C58.0292947,7.59765625 57.6210956,7.64843699 57.2421875,7.75 C56.8632794,7.85156301 56.5097673,7.98046797 56.1816406,8.13671875 C55.853514,8.29296953 55.5527357,8.46484281 55.2792969,8.65234375 C55.005858,8.83984469 54.7597667,9.01953039 54.5410156,9.19140625 L53.5449219,7.9140625 Z" id="Path" fill="#37719E"></path>
            <path d="M60.9160156,12.3671875 C59.8535103,12.3906251 58.939457,12.4863273 58.1738281,12.6542969 C57.4081993,12.8222665 56.7792993,13.0507798 56.2871094,13.3398438 C55.7949194,13.6289077 55.4316418,13.968748 55.1972656,14.359375 C54.9628895,14.750002 54.8457031,15.1796852 54.8457031,15.6484375 C54.8457031,16.3125033 55.0332012,16.8007797 55.4082031,17.1132812 C55.783205,17.4257828 56.3027311,17.5820312 56.9667969,17.5820312 C57.3261737,17.5820312 57.683592,17.5429691 58.0390625,17.4648438 C58.394533,17.3867184 58.7402327,17.2812507 59.0761719,17.1484375 C59.4121111,17.0156243 59.7343735,16.8574228 60.0429688,16.6738281 C60.351564,16.4902335 60.6425768,16.2929698 60.9160156,16.0820312 L60.9160156,12.3671875 Z" id="Path" fill="#FFFFFF"></path>
            <path d="M67.2441406,0.63671875 L69.0957031,0.63671875 L69.0957031,7.38671875 C69.470705,7.06640465 69.9804655,6.77929814 70.625,6.52539062 C71.2695345,6.27148311 72.0253863,6.14453125 72.8925781,6.14453125 C74.5097737,6.14453125 75.7499957,6.70702562 76.6132812,7.83203125 C77.4765668,8.95703688 77.9082031,10.5038964 77.9082031,12.4726562 C77.9082031,14.5429791 77.4043019,16.1796815 76.3964844,17.3828125 C75.3886668,18.5859435 73.6933713,19.1875 71.3105469,19.1875 C70.7558566,19.1875 70.0878945,19.1582034 69.3066406,19.0996094 C68.5253867,19.0410153 67.8378936,18.9765629 67.2441406,18.90625 L67.2441406,0.63671875 Z" id="Path" fill="#37719E"></path>
            <path d="M69.0957031,17.3125 C69.7207063,17.6328141 70.5839789,17.7929688 71.6855469,17.7929688 C73.1777418,17.7929688 74.2617154,17.2832082 74.9375,16.2636719 C75.6132846,15.2441355 75.9511719,14.0507881 75.9511719,12.6835938 C75.9511719,11.0742107 75.638675,9.84570736 75.0136719,8.99804688 C74.3886688,8.15038639 73.5293023,7.7265625 72.4355469,7.7265625 C71.7792936,7.7265625 71.1523467,7.82421777 70.5546875,8.01953125 C69.9570283,8.21484473 69.470705,8.45312359 69.0957031,8.734375 L69.0957031,17.3125 Z" id="Path" fill="#FFFFFF"></path>
        </g>
    </g>
</svg>